<?xml version="1.0" standalone="no"?>
<!DOCTYPE svg PUBLIC "-//W3C//DTD SVG 20010904//EN"
 "http://www.w3.org/TR/2001/REC-SVG-20010904/DTD/svg10.dtd">
<svg version="1.0" xmlns="http://www.w3.org/2000/svg"
 width="1083.000000pt" height="1083.000000pt" viewBox="0 0 1083.000000 1083.000000"
 preserveAspectRatio="xMidYMid meet">
<metadata>
Created by potrace 1.11, written by Peter Selinger 2001-2013
</metadata>
<g transform="translate(0.000000,1083.000000) scale(0.100000,-0.100000)"
fill="#000000" stroke="none">
<path d="M0 5415 l0 -5375 5415 0 5415 0 0 5375 0 5375 -5415 0 -5415 0 0
-5375z m5765 5140 c258 -10 556 -51 848 -116 828 -186 1585 -568 2252 -1137
131 -111 403 -385 533 -537 643 -745 1068 -1681 1201 -2645 39 -285 46 -391
46 -730 0 -339 -7 -445 -46 -730 -133 -964 -558 -1900 -1201 -2645 -130 -152
-402 -426 -533 -537 -1185 -1011 -2685 -1437 -4220 -1197 -586 92 -1204 310
-1726 609 -135 77 -329 198 -329 205 0 2 66 4 148 4 200 1 292 25 447 118 60
37 120 74 133 84 12 9 46 20 75 24 118 15 297 76 398 135 l47 29 7 -42 c6 -33
18 -52 59 -91 60 -57 99 -76 227 -111 156 -42 327 -31 463 29 128 57 273 180
348 296 26 41 48 71 49 65 0 -5 0 -38 -1 -73 -2 -69 28 -176 63 -225 70 -100
300 -168 466 -137 104 19 190 58 248 113 l52 49 55 -59 c149 -161 424 -215
642 -126 76 31 128 86 170 177 l26 57 39 -45 c43 -49 139 -120 208 -156 71
-36 224 -70 313 -70 153 0 279 39 387 121 56 43 69 46 109 25 15 -8 65 -22
112 -31 155 -32 339 -2 482 78 79 44 238 190 238 219 0 12 -12 24 -36 34 -20
8 -35 17 -33 18 2 2 37 18 78 35 192 81 379 235 462 379 24 40 29 59 24 82
-11 49 -48 61 -219 71 -145 9 -206 20 -234 42 -23 19 -79 122 -100 188 -41
124 -71 396 -57 511 7 53 9 56 52 77 273 133 566 559 701 1021 128 441 134
1020 16 1500 -41 165 -162 516 -224 645 -5 11 -30 67 -55 123 -68 154 -167
348 -266 523 -49 87 -89 161 -89 166 0 5 27 28 61 53 133 97 276 290 329 446
43 125 18 152 -67 73 -84 -76 -149 -104 -243 -104 -65 0 -85 5 -141 32 -37 18
-85 50 -108 70 -40 37 -42 42 -117 303 -135 472 -222 716 -346 965 -224 451
-541 808 -974 1100 -126 85 -331 197 -425 233 -30 11 -79 31 -109 45 -143 64
-489 150 -735 184 -182 25 -585 24 -740 0 -453 -73 -893 -282 -1160 -551 -166
-167 -243 -298 -266 -448 -18 -124 -22 -133 -50 -132 -13 1 -66 13 -117 29
-76 22 -107 26 -175 23 -84 -3 -116 -15 -286 -103 -197 -102 -406 -397 -520
-732 -78 -228 -116 -441 -151 -848 -42 -491 -81 -650 -256 -1043 -107 -239
-153 -350 -199 -477 -24 -66 -64 -167 -89 -225 -25 -58 -63 -166 -85 -240 -22
-74 -56 -185 -75 -247 -107 -340 -122 -877 -37 -1311 23 -119 72 -296 108
-397 14 -38 32 -87 39 -108 42 -116 159 -320 255 -447 85 -112 273 -310 358
-377 12 -9 31 -196 31 -315 0 -274 -47 -386 -171 -402 -63 -9 -103 -28 -125
-61 -13 -20 -14 -30 -4 -62 37 -114 149 -235 273 -297 84 -41 218 -86 257 -86
14 0 29 -2 32 -5 3 -3 -5 -35 -18 -72 -23 -66 -77 -134 -147 -185 l-28 -20
-77 58 c-252 192 -557 481 -771 729 -643 748 -1067 1681 -1200 2645 -39 285
-46 391 -46 730 0 339 7 445 46 730 133 964 558 1899 1201 2645 130 152 402
426 533 537 822 702 1768 1113 2835 1234 164 18 480 33 615 28 50 -2 153 -6
230 -9z m-990 -2209 c204 -30 468 -45 880 -52 l410 -6 55 -31 c94 -53 305
-222 425 -341 95 -95 135 -139 201 -225 27 -35 64 -82 81 -105 40 -50 163
-233 163 -241 0 -3 17 -32 37 -63 20 -31 45 -72 55 -90 67 -120 229 -334 352
-462 81 -84 187 -225 187 -247 0 -10 0 -65 0 -123 -1 -91 5 -255 10 -270 0 -3
1 -31 0 -64 -1 -34 4 -65 11 -74 11 -13 11 -14 0 -8 -10 6 -12 -14 -8 -106 3
-62 6 -115 7 -118 3 -19 -2 -418 -5 -430 -3 -8 -7 -37 -11 -65 -5 -41 -14 -81
-30 -135 -1 -3 -5 -18 -9 -35 -17 -66 -70 -222 -88 -258 -10 -20 -16 -37 -14
-37 2 0 -18 -42 -46 -92 -75 -138 -83 -153 -88 -158 -10 -10 -31 -45 -36 -62
-4 -10 -10 -18 -15 -18 -5 0 -9 -5 -9 -11 0 -6 -13 -29 -28 -52 -78 -115 -108
-160 -117 -175 -5 -9 -18 -23 -27 -30 -10 -7 -18 -18 -18 -23 0 -6 -6 -16 -12
-23 -7 -7 -35 -39 -63 -71 -27 -32 -63 -71 -80 -87 -81 -78 -116 -110 -190
-174 -44 -37 -84 -73 -90 -80 -11 -14 -210 -179 -252 -209 -55 -40 -165 -105
-177 -105 -12 0 -88 -38 -96 -49 -6 -7 -64 -38 -245 -130 -112 -57 -143 -67
-270 -92 -72 -13 -241 -9 -299 8 -27 8 -57 16 -65 18 -9 2 -41 13 -71 24 -52
20 -85 36 -332 164 -60 30 -108 54 -108 51 0 -12 -207 128 -222 150 -4 6 -8 7
-8 2 0 -5 -8 0 -17 10 -10 11 -56 51 -103 89 -47 38 -89 75 -95 81 -5 7 -46
41 -90 76 -102 83 -263 242 -341 338 -71 88 -174 236 -174 250 0 6 -4 10 -10
10 -5 0 -10 6 -10 14 0 8 -7 16 -15 20 -8 3 -15 12 -15 19 0 8 -13 31 -30 52
-16 21 -30 42 -30 48 0 6 -10 22 -22 35 -13 14 -18 22 -11 19 6 -4 -9 28 -33
70 -24 43 -44 81 -44 85 0 4 -5 19 -12 35 -6 15 -11 31 -10 36 1 4 -2 7 -6 7
-10 0 -59 145 -53 158 1 1 -6 16 -15 33 -8 17 -17 41 -20 52 -2 12 -9 47 -16
77 -18 85 -18 85 -23 250 -7 194 -7 212 -6 340 1 58 1 189 1 292 0 120 5 219
14 275 8 49 20 129 26 178 7 50 26 169 42 265 45 263 47 274 58 425 29 393 41
491 76 612 45 158 115 288 215 397 94 103 181 148 329 171 114 18 544 12 695
-9z m3173 -3245 c34 -59 62 -119 62 -133 0 -33 -31 -71 -75 -92 -39 -19 -60
-16 -99 15 -33 26 -33 57 -2 151 24 70 33 112 35 151 2 33 16 16 79 -92z"/>
<path d="M6760 7045 c-279 -53 -623 -160 -669 -209 l-23 -24 23 -12 c27 -15
60 -12 569 39 107 11 219 17 248 14 31 -3 97 -23 155 -48 96 -41 262 -95 293
-95 23 0 27 26 8 55 -15 24 -127 122 -231 203 -101 79 -226 105 -373 77z"/>
<path d="M3983 7030 c-58 -12 -118 -44 -193 -105 -96 -77 -210 -195 -210 -218
0 -18 5 -19 44 -14 59 8 150 40 269 94 95 44 100 45 205 45 59 0 184 -7 277
-16 441 -43 461 -43 489 -23 18 13 18 15 -3 34 -50 47 -370 142 -647 193 -114
21 -162 23 -231 10z"/>
<path d="M6619 6305 c-107 -20 -179 -49 -262 -106 -144 -98 -249 -222 -293
-348 -39 -109 -32 -124 22 -50 85 117 114 138 114 84 0 -13 9 -49 21 -80 l20
-55 102 -2 c308 -8 477 17 629 93 32 16 37 24 43 67 11 81 -9 160 -73 285 -2
4 14 7 36 7 55 0 272 -38 287 -50 17 -14 48 12 43 36 -4 23 -104 66 -238 100
-123 32 -337 41 -451 19z m-91 -178 c11 -55 -32 -107 -88 -107 -33 0 -80 28
-80 48 0 16 127 83 150 79 8 -1 16 -10 18 -20z"/>
<path d="M4015 6289 c-119 -17 -274 -67 -343 -110 -46 -29 -13 -78 37 -53 29
15 260 58 268 50 3 -2 -7 -29 -21 -59 -33 -67 -51 -160 -42 -220 7 -45 8 -47
72 -77 86 -40 215 -77 302 -85 39 -4 146 -4 237 0 l166 7 15 37 c8 20 18 66
21 104 3 37 9 67 12 67 9 0 100 -95 146 -152 20 -27 41 -48 46 -48 14 0 -21
101 -56 165 -69 124 -257 284 -392 335 -124 46 -310 62 -468 39z m194 -124
c76 -39 46 -165 -39 -165 -35 0 -76 27 -90 60 -16 38 1 84 39 105 34 18 55 18
90 0z"/>
<path d="M5865 4979 c-32 -142 -59 -179 -164 -228 -156 -72 -329 -64 -471 22
-62 37 -90 83 -116 190 -18 73 -32 81 -51 26 -33 -96 12 -245 98 -326 41 -37
138 -75 235 -91 83 -13 103 -13 192 0 181 28 277 95 324 225 26 73 28 175 4
221 -9 17 -21 32 -25 32 -5 0 -17 -32 -26 -71z"/>
<path d="M6485 4439 c-16 -6 -88 -14 -159 -19 -70 -4 -133 -13 -139 -19 -6 -6
-19 -11 -29 -11 -10 0 -18 -4 -18 -10 0 -5 -3 -9 -7 -8 -5 1 -21 -4 -36 -10
-16 -7 -36 -12 -45 -12 -9 0 -40 -11 -67 -24 -45 -21 -74 -28 -155 -42 -14 -3
-32 -7 -40 -10 -8 -3 -62 -8 -120 -12 -213 -14 -544 2 -575 28 -7 6 -14 7 -17
5 -3 -3 -61 13 -129 36 -68 23 -131 42 -139 43 -9 1 -21 6 -28 10 -7 4 -63 12
-123 17 -60 6 -121 14 -135 19 -43 17 -74 12 -74 -9 0 -11 4 -22 9 -25 4 -3
11 -20 15 -37 9 -45 67 -146 116 -202 144 -163 449 -303 734 -337 114 -14 214
-16 276 -7 25 3 70 9 100 12 168 18 432 122 591 232 58 40 160 149 194 208 24
40 74 167 75 188 0 10 -38 8 -75 -4z m-1320 -259 c44 -6 157 -12 250 -11 232
0 475 -9 475 -19 0 -21 -342 -53 -488 -45 -181 10 -337 26 -416 43 -183 39
-38 65 179 32z m789 -19 c3 -5 -7 -11 -22 -14 -32 -6 -42 0 -22 13 19 12 37
13 44 1z m-983 -55 c242 -40 673 -45 924 -11 185 25 241 29 249 16 4 -6 16
-11 27 -11 11 0 27 -6 35 -14 7 -8 19 -16 26 -19 23 -8 -31 -54 -113 -97 -66
-34 -96 -43 -186 -55 -159 -22 -546 -30 -758 -16 -177 12 -180 12 -264 52
-142 66 -170 97 -135 147 18 27 66 29 195 8z"/>
<path d="M6333 3977 c-27 -28 -60 -55 -88 -72 -16 -10 -34 -24 -40 -30 -17
-18 -138 -100 -193 -130 -29 -15 -52 -32 -52 -37 0 -4 -5 -8 -11 -8 -6 0 -44
-16 -84 -36 -41 -19 -82 -36 -94 -37 -11 0 -18 -4 -15 -8 11 -19 -348 -32
-461 -17 -27 3 -72 17 -100 29 -27 13 -53 23 -56 24 -9 0 -104 49 -109 56 -3
4 -25 17 -50 30 -25 13 -56 33 -69 46 -14 12 -28 20 -33 17 -4 -3 -8 0 -8 6 0
6 -12 16 -27 22 -16 7 -39 24 -52 38 -14 14 -26 24 -28 22 -7 -6 -83 45 -76
51 3 4 2 7 -3 8 -5 0 -18 2 -29 4 -19 3 -19 3 -2 -9 9 -7 17 -18 17 -24 0 -23
193 -233 248 -270 344 -231 677 -260 1017 -89 134 67 279 172 291 212 4 11 28
45 53 75 50 58 78 99 79 114 0 5 6 13 14 17 9 6 8 9 -7 8 -11 0 -25 -5 -32
-12z"/>
</g>
</svg>
